<svg clip-rule="evenodd" fill-rule="evenodd" stroke-linecap="round" stroke-linejoin="round" stroke-miterlimit="1.5"
     viewBox="0 0 24 24" xmlns="http://www.w3.org/2000/svg">
  <circle cx="11.78" cy="11.78" fill="#ebebeb" r="11.28" stroke="#fff"/>
  <path
    d="m19.353 6.646c-.279-.225-.687-.18-.911.099l-8.623 10.731c-.117.125-.275.198-.447.205-.177.007-.344-.056-.471-.176l-4.799-4.601c-.259-.248-.669-.239-.917.019-.247.259-.239.669.02.917l4.801 4.602c.365.347.837.535 1.338.535.026 0 .053 0 .08-.001.53-.022 1.017-.251 1.37-.646.008-.009.015-.017.023-.026l8.635-10.747c.224-.279.18-.687-.099-.911z"
    fill="#fff" fill-rule="nonzero"/>
</svg>
